PathFileType	4	(X/Y/Z)	./resultDataOpenSim/trcMotMarkerGrf/sub10/qtm-05-08.trc
DataRate	CameraRate	NumFrames	NumMarkers	Units	OrigDataRate	OrigDataStartFrame	OrigNumFrames
250.000000	250.000000	9	24	m	250.000000	463	529
Frame#	Time	L.Toe.Tip			R.Toe.Tip			L.Ankle.Lat			R.Ankle.Lat			L.Ankle.Med			R.Ankle.Med			L.Heel			R.Heel			L.Knee.Lat			R.Knee.Lat			L.Knee.Med			R.Knee.Med			L.Thigh.Upper			R.Thigh.Upper			L.ASIS			R.ASIS			V.Sacral			L.Acromium			R.Acromium			C7			L.Elbow			R.Elbow			L.Wrist.Lat			R.Wrist.Lat
		X1	Y1	Z1	X2	Y2	Z2	X3	Y3	Z3	X4	Y4	Z4	X5	Y5	Z5	X6	Y6	Z6	X7	Y7	Z7	X8	Y8	Z8	X9	Y9	Z9	X10	Y10	Z10	X11	Y11	Z11	X12	Y12	Z12	X13	Y13	Z13	X14	Y14	Z14	X15	Y15	Z15	X16	Y16	Z16	X17	Y17	Z17	X18	Y18	Z18	X19	Y19	Z19	X20	Y20	Z20	X21	Y21	Z21	X22	Y22	Z22	X23	Y23	Z23	X24	Y24	Z24

463	1.848	1.6630477	0.11431501	-0.12766307	0.91126585	0.037951513	0.026739806	1.5320312	0.08898711	-0.16230277	0.77349795	0.074999517	0.051928531	1.5295662	0.1094692	-0.081099926	0.8068291	0.095373695	-0.030731399	1.483462	0.03511575	-0.12273823	0.72153459	0.062141139	0.0014188347	1.3907255	0.45456937	-0.17523131	0.97463728	0.42537262	0.095697372	1.4072125	0.42893496	-0.055149605	1.0124806	0.42076368	-0.027924591	1.2398197	0.80315142	-0.21213649	1.0635964	0.82708342	0.14260691	1.2592197	0.90911707	-0.12461694	1.1689362	0.90937218	0.10977554	1.0205348	0.91262995	-0.079478999	1.172249	1.3740498	-0.18969975	1.1569788	1.3775771	0.13297146	1.0770167	1.4020417	-0.036560714	1.0043369	1.0820231	-0.2575803	1.2059192	1.0351803	0.24488367	1.0471445	0.85675478	-0.34811695	1.4552819	1.0078321	0.24992276
464	1.852	1.6693389	0.11317887	-0.12947141	0.91137863	0.037963808	0.026786335	1.5379454	0.08755437	-0.16252917	0.77415006	0.076303114	0.052187812	1.5359261	0.10834487	-0.081128874	0.8075375	0.096372458	-0.030505682	1.4894969	0.033770585	-0.12217711	0.72199115	0.063997012	0.0017561785	1.3978239	0.45400119	-0.17550087	0.97838994	0.42463558	0.095634662	1.4145154	0.42856296	-0.055294625	1.0170791	0.41961786	-0.027770554	1.246619	0.80186424	-0.21247417	1.0690643	0.82574829	0.14178413	1.2655582	0.90753859	-0.12467595	1.1747066	0.90778519	0.109801	1.026985	0.91119618	-0.080789802	1.1782412	1.3725786	-0.19030034	1.162372	1.376224	0.13223961	1.0826368	1.4006032	-0.0374702	1.0100944	1.0808927	-0.25805487	1.2126796	1.0339127	0.24344207	1.0512227	0.85562876	-0.34921704	1.461634	1.0064563	0.24766323
465	1.856	1.6748044	0.11167416	-0.13092096	0.91151125	0.037977598	0.026843566	1.5432427	0.085953316	-0.16258699	0.77484306	0.077702409	0.05248364	1.5418033	0.10705387	-0.081079254	0.80828761	0.097472406	-0.030248694	1.4949338	0.032299362	-0.12150212	0.72250829	0.065990846	0.0021258559	1.4050031	0.45341288	-0.17582366	0.98223827	0.42391854	0.095584919	1.4218388	0.42820575	-0.055600346	1.0218315	0.41843462	-0.027592021	1.2533428	0.80061465	-0.21283696	1.0747203	0.8244599	0.14097044	1.2719339	0.90595467	-0.12472101	1.1805841	0.90622727	0.10980468	1.033573	0.90982694	-0.082229989	1.1842582	1.3711572	-0.19093812	1.1677839	1.3749284	0.13147778	1.0882974	1.3991918	-0.038421471	1.0159376	1.0797766	-0.25851563	1.2194202	1.0325498	0.24181581	1.0554511	0.85451372	-0.35027386	1.4678786	1.0050438	0.24538625
466	1.86	1.6795903	0.10979336	-0.13207377	0.91166093	0.037990731	0.026912922	1.5479858	0.08419513	-0.16252461	0.77554503	0.079216194	0.052837869	1.5471846	0.10559503	-0.080969325	0.80910655	0.098667486	-0.029945718	1.499832	0.030671119	-0.12066855	0.72309549	0.068127029	0.0025271831	1.412244	0.45278538	-0.17620409	0.98622899	0.42323931	0.095541159	1.4291939	0.42785603	-0.056000059	1.0267222	0.41720451	-0.027404883	1.2599751	0.79942905	-0.21324025	1.0804868	0.82320347	0.14016462	1.2783571	0.90438114	-0.12476429	1.1865846	0.90469873	0.10976991	1.0401889	0.90853877	-0.083729421	1.1903034	1.3697811	-0.19161118	1.1732162	1.3736878	0.13069079	1.0939946	1.3978074	-0.039408641	1.0218665	1.0786696	-0.25896607	1.2259943	1.0311435	0.24011504	1.0598338	0.85340427	-0.35128806	1.4740097	1.0036006	0.24310377
467	1.864	1.683845	0.10754995	-0.13301557	0.91182462	0.038002502	0.026994784	1.5522589	0.082282182	-0.16239881	0.7762479	0.080865088	0.053258511	1.5520732	0.10396196	-0.080818082	0.81003583	0.099946787	-0.029591416	1.5042424	0.028872312	-0.11957606	0.72376435	0.070404407	0.002956702	1.4194949	0.45210838	-0.17661793	0.99040339	0.42260864	0.095497909	1.4365917	0.42748734	-0.056377379	1.0317322	0.41593377	-0.02722018	1.266496	0.79833097	-0.21369933	1.0862994	0.82196561	0.13936944	1.2848406	0.90282522	-0.12482374	1.1927431	0.90319827	0.10968253	1.0467898	0.90733866	-0.085248688	1.1963777	1.3684469	-0.19232093	1.1786639	1.3725014	0.12988643	1.0997256	1.3964478	-0.040420648	1.0278752	1.0775703	-0.25940863	1.2322672	1.0297659	0.23846236	1.0643739	0.85229719	-0.35226012	1.4800138	1.002132	0.24083294
468	1.868	1.6876621	0.10498475	-0.13378777	0.91200213	0.038013136	0.027086765	1.5561477	0.080213002	-0.16225548	0.77700234	0.08264715	0.053723355	1.5564873	0.10214526	-0.080639042	0.81107584	0.10131685	-0.029214166	1.5081385	0.026990341	-0.11821248	0.72452676	0.072820949	0.0034038552	1.4267024	0.45137607	-0.17703268	0.99477878	0.42201896	0.095456708	1.4440512	0.4271	-0.056736226	1.0368405	0.41464128	-0.027044217	1.2728879	0.79733284	-0.21421725	1.092174	0.82075439	0.13860274	1.2913841	0.90128559	-0.12490558	1.1990898	0.90172575	0.10954056	1.0533765	0.90622571	-0.086771529	1.2024685	1.3671588	-0.19307088	1.1841261	1.3713658	0.12906473	1.1054877	1.3951103	-0.041449863	1.0339547	1.076479	-0.25984275	1.2382272	1.0284379	0.23687595	1.0690722	0.85118931	-0.35319207	1.4858787	1.0006413	0.23858673
469	1.872	1.6911003	0.10212031	-0.13440264	0.91219913	0.038022759	0.027185012	1.5597091	0.077985374	-0.16211537	0.77788207	0.084549855	0.054202124	1.5604543	0.1001386	-0.080437759	0.8121932	0.10279276	-0.028849723	1.5113894	0.02526717	-0.11681525	0.72539611	0.075377449	0.0038517703	1.433838	0.45057969	-0.17743304	0.99936083	0.42144967	0.095420868	1.4515788	0.42670893	-0.05716021	1.0420235	0.41335128	-0.026883627	1.2791414	0.79643151	-0.2147849	1.0981652	0.8195875	0.1378863	1.2979745	0.89976593	-0.12500461	1.2056193	0.90028197	0.10934969	1.0599616	0.90519614	-0.088289466	1.2085634	1.3659208	-0.19386226	1.1896049	1.3702771	0.12822191	1.1112796	1.3937938	-0.042496391	1.0400982	1.0753933	-0.26026886	1.2439524	1.0271437	0.23530246	1.0739299	0.85007699	-0.35408677	1.4916028	0.99913384	0.23637103
470	1.876	1.6942327	0.098884754	-0.13488251	0.9124251	0.038030136	0.027287442	1.5629434	0.075613448	-0.16196964	0.77892618	0.086573131	0.054681329	1.5640146	0.097948136	-0.080215469	0.81339696	0.10436602	-0.028492052	1.5138659	0.023989308	-0.11580415	0.72638394	0.078080046	0.0042877598	1.440889	0.44971003	-0.17781887	1.0041617	0.42087755	0.095387903	1.4591409	0.42630489	-0.057668721	1.0472668	0.41208469	-0.026740933	1.2852617	0.79560733	-0.2153955	1.1042978	0.81847381	0.13722472	1.3046061	0.89828237	-0.1251209	1.2122903	0.89886623	0.10911123	1.0665549	0.90424624	-0.08979341	1.2146679	1.364728	-0.1946938	1.1950955	1.3692339	0.12736164	1.1171024	1.3924984	-0.04356383	1.0463032	1.0743085	-0.26069164	1.2495196	1.0258674	0.23370599	1.0789497	0.84895868	-0.35494577	1.4971938	0.99760919	0.23418808
471	1.88	1.697182	0.095078674	-0.13523108	0.91268557	0.03803216	0.027395791	1.5658286	0.07317663	-0.16180775	0.78014174	0.088713243	0.055151283	1.5672424	0.095633562	-0.079970173	0.81474384	0.10601075	-0.028105737	1.5156022	0.023264396	-0.11541305	0.7274969	0.080938733	0.0047112776	1.4478427	0.44876528	-0.17819142	1.009199	0.42028353	0.095354072	1.4666768	0.42585759	-0.058206451	1.0525758	0.41085206	-0.026608444	1.2912725	0.79483037	-0.21605515	1.1105605	0.81741541	0.13659844	1.3112918	0.89685553	-0.12526795	1.2190674	0.89747896	0.10882167	1.0731615	0.90337302	-0.09127192	1.2207946	1.3635745	-0.1955648	1.2005964	1.3682338	0.12648568	1.1229566	1.3912238	-0.044653519	1.0525676	1.0732216	-0.26111815	1.2549677	1.0246007	0.23208857	1.0841339	0.84783569	-0.35576998	1.5026652	0.99605508	0.23203866
